<svg width="36" height="36" viewBox="0 0 36 36" fill="none" xmlns="http://www.w3.org/2000/svg">
<path d="M7.05465 0C3.17515 0 0 3.17508 0 7.05465V28.9465C0 32.826 3.17508 36 7.05465 36H28.9465C32.826 36 36 32.826 36 28.9465V7.05465C36 3.17515 32.826 0 28.9465 0H7.05465ZM8.82901 5.94072C10.6891 5.94072 11.8349 7.16187 11.8703 8.76706C11.8703 10.3368 10.6891 11.5923 8.79303 11.5923H8.75813C6.93339 11.5923 5.75398 10.3369 5.75398 8.76706C5.75398 7.16191 6.96912 5.94072 8.82901 5.94072ZM24.8589 13.4432C28.4363 13.4432 31.1181 15.7814 31.1181 20.8061V30.1863H25.6814V21.435C25.6814 19.2359 24.8945 17.7355 22.927 17.7355C21.425 17.7355 20.5298 18.7468 20.1367 19.7237C19.9931 20.0732 19.9578 20.5613 19.9578 21.0502V30.1863H14.5211C14.5211 30.1863 14.5925 15.3618 14.5211 13.8268H19.9589V16.1435C20.6814 15.0288 21.9737 13.4432 24.8589 13.4432ZM6.07467 13.828H11.5113V30.1864H6.07467V13.828Z" fill="#1F1F1F"/>
</svg>
