<svg width="203" height="101" viewBox="0 0 203 101" fill="none" xmlns="http://www.w3.org/2000/svg">
<path d="M100.151 65.1396L100.287 66.2742C98.5912 68.6832 97.0069 70.6895 95.534 72.2931C94.0742 73.9069 92.6097 75.1849 91.1406 76.1271C89.6728 77.081 88.2117 77.6446 86.7571 77.818C85.5004 77.9678 84.3884 77.8466 83.4211 77.4544C82.4655 77.0609 81.6974 76.4089 81.1168 75.4986C80.5492 74.5985 80.1871 73.491 80.0304 72.1761C79.9069 71.1404 79.9394 70.0272 80.128 68.8364C80.3267 67.6325 80.6702 66.4055 81.1585 65.1553C81.6454 63.8935 82.2677 62.5801 83.0256 61.2152C83.7951 59.8489 84.714 58.3999 85.7824 56.8681C86.8918 55.2843 88.0073 53.9003 89.129 52.7163C90.2492 51.5206 91.2802 50.5657 92.2218 49.8516C93.1634 49.1374 94.0474 48.5836 94.8739 48.1901C95.7119 47.7951 96.416 47.5637 96.9862 47.4957C97.568 47.4264 98.0792 47.507 98.5198 47.7378C98.9603 47.9685 99.3231 48.3383 99.608 48.8472C99.8929 49.3562 100.077 49.9597 100.16 50.6579C100.317 51.9728 100.044 53.4924 99.3404 55.2166C98.6358 56.9293 97.7039 58.6159 96.5447 60.2765C95.3854 61.9371 94.2517 63.3173 93.1436 64.4171C92.0458 65.5039 91.2293 66.0792 90.694 66.143C90.3333 66.186 89.9792 66.0866 89.6317 65.8448C89.2945 65.5899 89.1044 65.2821 89.0614 64.9214C88.9823 64.2581 89.2357 63.4136 89.8215 62.3878C90.419 61.3607 91.0844 60.4081 91.8176 59.5299C92.5611 58.6388 93.0143 58.1835 93.1772 58.1641C93.2587 58.1544 93.3036 58.1844 93.3119 58.2543C93.3244 58.359 93.2819 58.547 93.1844 58.8182C93.0985 59.0881 93.0591 59.2521 93.066 59.3103C93.0771 59.4034 93.1176 59.4458 93.1874 59.4375C93.3852 59.4139 93.8923 58.8165 94.7086 57.6452C95.5249 56.474 96.2473 55.2077 96.8758 53.8464C97.5145 52.4721 97.7853 51.3776 97.6882 50.5631C97.648 50.2256 97.5418 49.9786 97.3697 49.8221C97.2079 49.6526 96.9815 49.5852 96.6906 49.6198C95.8761 49.7169 94.7159 50.5279 93.21 52.0528C91.7143 53.5647 90.2159 55.4486 88.7145 57.7047C87.2234 59.9477 86.0258 62.2266 85.1215 64.5413C84.2172 66.856 83.8636 68.8395 84.0605 70.4919C84.1743 71.4461 84.4089 72.2265 84.7645 72.8333C85.1317 73.4386 85.6095 73.8832 86.198 74.1671C86.7982 74.4496 87.4881 74.5444 88.2677 74.4515C89.955 74.2504 91.7908 73.3647 93.7752 71.7946C95.7595 70.2245 97.885 68.0062 100.151 65.1396ZM108.1 63.0592C106.679 65.4945 105.582 67.2362 104.81 68.2841C104.05 69.3307 103.39 69.8873 102.832 69.9539C102.39 70.0066 101.961 69.8748 101.546 69.5584C101.129 69.2304 100.779 68.7706 100.496 68.1788C100.223 67.574 100.045 66.9167 99.96 66.2069C99.9046 65.7414 99.8954 65.3177 99.9324 64.9356C99.9811 64.5521 100.101 64.1248 100.293 63.6534C100.483 63.1705 100.745 62.6436 101.078 62.0728C101.423 61.5006 101.847 60.8482 102.35 60.1156C102.65 59.6667 102.9 59.2888 103.1 58.9818C103.311 58.6734 103.521 58.4594 103.731 58.34C103.951 58.2075 104.318 58.1108 104.83 58.0498C105.202 58.0054 105.563 58.0154 105.913 58.0799C106.262 58.1328 106.442 58.2116 106.455 58.3163C106.48 58.5258 106.35 58.9248 106.066 59.5133C105.794 60.1004 105.321 60.8354 104.647 61.7182C103.984 62.588 103.197 63.4607 102.286 64.3364C102.147 65.0493 102.099 65.5861 102.142 65.9468C102.202 66.4472 102.423 66.6745 102.807 66.6287C102.947 66.6121 103.166 66.468 103.464 66.1964C103.761 65.9132 104.253 65.3884 104.94 64.6219C105.638 63.8424 106.264 63.1541 106.818 62.557C107.225 62.1072 107.679 61.4572 108.179 60.6068C108.69 59.7434 109.108 59.0917 109.433 58.6517C110.186 57.6414 110.704 56.9837 110.986 56.6786C111.267 56.3619 111.553 56.1862 111.844 56.1515C112.123 56.1183 112.32 56.1833 112.433 56.3468C112.559 56.5089 112.654 56.8575 112.717 57.3928C112.747 57.6372 112.747 57.8377 112.718 57.9946C112.69 58.1514 112.614 58.361 112.492 58.6234C112.38 58.8728 112.142 59.3438 111.776 60.0365C111.41 60.7292 110.976 61.548 110.475 62.4929C110.205 62.9971 109.981 63.5431 109.803 64.1308C109.624 64.7068 109.551 65.1345 109.584 65.4138C109.656 66.0189 109.931 66.293 110.408 66.2361C110.804 66.1889 111.244 65.9712 111.729 65.583C112.213 65.1948 112.946 64.5114 113.927 63.533L114.067 64.7024C112.855 66.1215 111.957 67.1549 111.374 67.8027C110.79 68.4506 110.277 68.9484 109.835 69.2962C109.392 69.644 108.956 69.8435 108.525 69.8948C107.548 70.0113 106.99 69.4878 106.851 68.3241C106.798 67.882 106.873 67.2712 107.075 66.4918C107.276 65.7007 107.617 64.5566 108.1 63.0592ZM115.444 60.2188C117.021 58.4022 118.596 57.0049 120.167 56.0269C121.738 55.0489 122.977 54.5058 123.885 54.3976C124.129 54.3685 124.369 54.4462 124.603 54.6307C124.836 54.8035 125.027 55.0168 125.175 55.2706C125.335 55.523 125.422 55.7132 125.438 55.8412C125.463 56.0506 125.4 56.2174 125.249 56.3416C125.098 56.4541 124.826 56.6044 124.436 56.7926C124.539 56.9691 124.673 57.1951 124.835 57.4708C124.998 57.7464 125.125 57.9732 125.217 58.1511C125.308 58.3173 125.362 58.4702 125.378 58.6099C125.411 58.8891 125.189 59.4467 124.71 60.2827C124.242 61.1057 123.913 61.7114 123.723 62.0998C123.545 62.4869 123.487 62.9423 123.549 63.4659C123.652 64.327 124.099 64.7104 124.89 64.6161C125.705 64.519 126.888 63.6049 128.44 61.8739L128.567 62.9386C126.013 66.5593 124.102 68.4453 122.833 68.5965C122.38 68.6506 122.036 68.5382 121.802 68.2592C121.581 67.9905 121.436 67.5652 121.366 66.9834C121.257 66.0641 121.43 64.6922 121.885 62.8677C120.411 64.9553 119.308 66.4498 118.578 67.3512C117.846 68.2409 117.212 68.7177 116.677 68.7815C116.421 68.812 116.075 68.6291 115.638 68.2327C115.201 67.8363 114.79 67.307 114.404 66.6449C114.029 65.9697 113.796 65.254 113.706 64.4976C113.641 63.9507 113.639 63.4906 113.701 63.1174C113.761 62.7326 113.92 62.3301 114.176 61.9101C114.433 61.49 114.856 60.9263 115.444 60.2188ZM123.576 57.3023C120.716 59.0476 118.697 60.4802 117.521 61.6C116.356 62.7183 115.834 63.7895 115.956 64.8135C116.001 65.1859 116.102 65.4866 116.259 65.7157C116.414 65.9332 116.603 66.0288 116.824 66.0024C116.952 65.9872 117.169 65.8787 117.476 65.6769C118.611 64.8098 119.617 63.7399 120.492 62.4673C121.365 61.183 122.394 59.4613 123.576 57.3023ZM136.277 60.9397C135.392 62.2254 134.591 63.3241 133.873 64.2357C133.168 65.146 132.583 65.8352 132.119 66.3036C131.666 66.7588 131.347 66.9976 131.16 67.0198C130.858 67.0558 130.485 66.8524 130.043 66.4094C129.613 65.9651 129.218 65.3807 128.861 64.6562C128.503 63.9317 128.277 63.1797 128.184 62.4001C128.05 61.2713 128.462 60.0716 129.419 58.8008C130.376 57.5185 131.507 56.4159 132.814 55.4931C134.12 54.5703 135.122 54.0672 135.82 53.984C136.39 53.9161 136.992 54.2102 137.625 54.8665C138.297 52.8862 138.949 51.121 139.578 49.5707C140.219 48.0191 140.771 46.8557 141.233 46.0807C141.696 45.3057 142.043 44.9044 142.276 44.8766C142.532 44.8461 142.78 44.9464 143.02 45.1774C143.27 45.3954 143.414 45.6615 143.451 45.9757C143.523 46.5808 143.205 47.6749 142.497 49.2582C141.788 50.8298 141.085 52.3651 140.391 53.8641C139.696 55.3631 139.122 56.8301 138.667 58.265C138.211 59.6884 138.052 60.976 138.189 62.128C138.314 63.1753 138.714 63.6587 139.389 63.5783C139.796 63.5297 140.281 63.2418 140.844 62.7145C141.405 62.1755 142.191 61.297 143.203 60.0788L143.355 61.353C141.228 64.8992 139.484 66.7534 138.123 66.9157C137.576 66.9809 137.155 66.8186 136.861 66.4288C136.578 66.0376 136.388 65.4289 136.289 64.6027C136.156 63.4857 136.152 62.2646 136.277 60.9397ZM137.061 56.5268C136.067 56.9994 134.919 57.7087 133.615 58.6548C132.31 59.5892 131.53 60.2192 131.274 60.5448C131.045 60.8081 130.871 61.2715 130.749 61.935C130.627 62.5986 130.586 63.0933 130.625 63.4191C130.649 63.617 130.726 63.7729 130.858 63.8871C130.989 64.0012 131.142 64.0479 131.317 64.0271C131.48 64.0076 131.658 63.9156 131.851 63.751C132.043 63.5864 132.342 63.2734 132.748 62.8121C133.165 62.3493 133.436 62.0514 133.562 61.9184C133.739 61.7203 134.131 61.2959 134.738 60.6453C135.355 59.9816 135.801 59.4682 136.076 59.1049C136.352 58.7416 136.576 58.349 136.75 57.927C136.923 57.4934 137.027 57.0267 137.061 56.5268ZM143.188 61.4436L143.053 60.3091C143.593 59.4895 143.994 58.7984 144.258 58.2359C143.87 58.1523 143.578 58.0278 143.381 57.8625C143.196 57.6957 143.081 57.4261 143.037 57.0538C142.987 56.6349 143.098 56.0846 143.371 55.403C143.644 54.7214 144.003 54.0708 144.449 53.4512C144.894 52.8316 145.316 52.4154 145.716 52.2026C145.869 52.1017 146.021 52.0423 146.173 52.0242C146.405 51.9965 146.535 52.0932 146.561 52.3142C146.585 52.5121 146.452 52.935 146.164 53.5831C148.516 52.925 150.007 52.5585 150.635 52.4836C150.88 52.4545 151.051 52.4577 151.15 52.4931C151.36 52.5743 151.552 52.7992 151.726 53.1679C151.9 53.5367 152.009 53.9131 152.055 54.2971C152.084 54.5414 152.006 54.8222 151.819 55.1395C151.643 55.4437 151.326 55.9005 150.867 56.5098C150.33 57.2466 149.898 58.0298 149.572 58.8594C149.246 59.689 149.107 60.3016 149.154 60.6972C149.219 61.2441 149.589 61.4773 150.264 61.3969C150.974 61.3123 152.121 60.4438 153.706 58.7914L153.846 59.9609C153 61.0884 152.298 61.9805 151.739 62.6372C151.18 63.2939 150.654 63.8287 150.16 64.2416C149.665 64.6429 149.208 64.8685 148.789 64.9184C148.301 64.9767 147.867 64.8041 147.489 64.4008C147.109 63.9858 146.868 63.3536 146.767 62.5041C146.707 62.0038 146.767 61.4183 146.947 60.7478C147.127 60.0773 147.416 59.3405 147.816 58.5376C148.227 57.7216 148.696 56.9044 149.224 56.0862C148.906 56.1948 148.549 56.3142 148.151 56.4442C147.752 56.5625 147.331 56.6895 146.886 56.825C146.442 56.9606 146.101 57.0662 145.862 57.1419C145.313 58.6708 144.421 60.1047 143.188 61.4436ZM156.508 59.1302L156.56 59.5665C156.642 60.2531 156.875 60.7682 157.258 61.112C157.641 61.4558 158.106 61.5951 158.653 61.5299C159.223 61.4619 159.795 61.2581 160.368 60.9183C160.953 60.5771 161.522 60.1494 162.074 59.6351C162.626 59.1208 163.294 58.4393 164.078 57.5905L164.205 58.6552C163.079 60.3945 161.991 61.7576 160.94 62.7443C159.888 63.7195 158.768 64.2778 157.581 64.4192C156.546 64.5427 155.677 64.239 154.977 63.5082C154.276 62.7774 153.842 61.7139 153.676 60.3175C153.53 59.0957 153.683 57.9562 154.136 56.8992C154.587 55.8305 155.392 54.6664 156.552 53.407C157.346 52.5453 158.157 51.8703 158.984 51.3823C159.811 50.8943 160.567 50.6094 161.254 50.5275C161.801 50.4623 162.247 50.539 162.591 50.7576C162.946 50.9631 163.153 51.316 163.213 51.8164C163.301 52.5495 163.114 53.3152 162.655 54.1135C162.194 54.9001 161.442 55.7214 160.399 56.5774C159.367 57.4204 158.07 58.2713 156.508 59.1302ZM156.548 57.9748C157.546 57.4427 158.382 56.8297 159.055 56.1359C159.727 55.442 160.205 54.8008 160.489 54.2123C160.783 53.6107 160.915 53.182 160.885 52.926C160.853 52.6583 160.715 52.5391 160.47 52.5682C160.261 52.5932 159.934 52.7679 159.488 53.0924C159.055 53.4155 158.619 53.8215 158.182 54.3103C157.756 54.7977 157.386 55.3552 157.071 55.9828C156.757 56.6104 156.582 57.2744 156.548 57.9748ZM164.064 58.9553L163.929 57.8208C164.468 57.0012 164.87 56.3101 165.133 55.7476C164.746 55.664 164.454 55.5395 164.257 55.3741C164.072 55.2074 163.957 54.9378 163.913 54.5654C163.863 54.1465 163.974 53.5963 164.247 52.9147C164.52 52.2331 164.879 51.5825 165.324 50.9629C165.77 50.3433 166.192 49.9271 166.592 49.7143C166.745 49.6134 166.897 49.5539 167.048 49.5359C167.281 49.5082 167.411 49.6048 167.437 49.8259C167.46 50.0237 167.328 50.4467 167.039 51.0948C169.392 50.4367 170.883 50.0702 171.511 49.9953C171.755 49.9662 171.927 49.9693 172.025 50.0048C172.236 50.0859 172.428 50.3109 172.602 50.6796C172.775 51.0484 172.885 51.4247 172.931 51.8087C172.96 52.0531 172.881 52.3339 172.695 52.6512C172.519 52.9554 172.202 53.4122 171.743 54.0215C171.205 54.7583 170.774 55.5415 170.448 56.3711C170.122 57.2006 169.982 57.8132 170.029 58.2089C170.095 58.7558 170.465 58.989 171.14 58.9086C171.849 58.824 172.997 57.9555 174.582 56.3031L174.721 57.4726C173.876 58.6001 173.174 59.4922 172.615 60.1489C172.056 60.8056 171.53 61.3404 171.036 61.7533C170.541 62.1546 170.084 62.3802 169.665 62.4301C169.176 62.4884 168.743 62.3158 168.364 61.9125C167.984 61.4975 167.744 60.8653 167.642 60.0158C167.583 59.5154 167.643 58.93 167.823 58.2595C168.002 57.589 168.292 56.8522 168.692 56.0492C169.102 55.2332 169.571 54.4161 170.099 53.5979C169.782 53.7065 169.424 53.8258 169.027 53.9559C168.628 54.0742 168.206 54.2012 167.762 54.3367C167.318 54.4723 166.977 54.5779 166.738 54.6536C166.188 56.1825 165.297 57.6164 164.064 58.9553ZM176.186 52.9786C177.763 51.1619 179.338 49.7646 180.909 48.7866C182.48 47.8086 183.719 47.2656 184.627 47.1574C184.871 47.1282 185.11 47.2059 185.345 47.3904C185.578 47.5633 185.769 47.7766 185.917 48.0303C186.077 48.2827 186.164 48.4729 186.18 48.6009C186.204 48.8104 186.142 48.9772 185.991 49.1013C185.84 49.2138 185.568 49.3642 185.178 49.5523C185.281 49.7288 185.414 49.9549 185.577 50.2305C185.74 50.5062 185.867 50.7329 185.959 50.9108C186.05 51.077 186.103 51.23 186.12 51.3696C186.153 51.6489 185.931 52.2065 185.452 53.0424C184.984 53.8654 184.655 54.4711 184.465 54.8596C184.287 55.2466 184.229 55.702 184.291 56.2256C184.394 57.0867 184.841 57.4701 185.632 57.3758C186.447 57.2787 187.63 56.3646 189.182 54.6336L189.309 55.6983C186.755 59.3191 184.844 61.205 183.575 61.3562C183.121 61.4103 182.778 61.2979 182.544 61.0189C182.323 60.7502 182.178 60.3249 182.108 59.7431C181.999 58.8238 182.172 57.452 182.627 55.6274C181.153 57.715 180.05 59.2095 179.32 60.1109C178.588 61.0007 177.954 61.4774 177.419 61.5412C177.163 61.5718 176.817 61.3888 176.38 60.9924C175.943 60.596 175.532 60.0667 175.146 59.4046C174.771 58.7295 174.538 58.0137 174.448 57.2573C174.383 56.7104 174.381 56.2504 174.443 55.8772C174.503 55.4923 174.662 55.0899 174.918 54.6698C175.175 54.2497 175.598 53.686 176.186 52.9786ZM184.318 50.062C181.457 51.8073 179.439 53.2399 178.263 54.3597C177.098 55.4781 176.576 56.5493 176.698 57.5733C176.743 57.9456 176.843 58.2464 177.001 58.4755C177.156 58.693 177.345 58.7885 177.566 58.7622C177.694 58.7469 177.911 58.6384 178.217 58.4367C179.353 57.5696 180.359 56.4997 181.234 55.227C182.107 53.9427 183.135 52.221 184.318 50.062ZM189.027 55.1124L188.977 54.6935C191.602 51.1705 193.403 48.7076 194.381 47.3047C194.466 45.8429 194.997 45.0538 195.975 44.9373C196.219 44.9081 196.489 44.9467 196.785 45.0531L196.93 45.3722C196.9 45.5174 196.9 45.718 196.931 45.974C196.957 46.1951 197.088 46.5985 197.323 47.1842C197.568 47.7568 197.761 48.2412 197.903 48.6374C198.045 49.0336 198.146 49.4877 198.207 49.9997C198.299 50.7677 198.212 51.5274 197.948 52.2788C197.682 53.0186 197.256 53.7539 196.67 54.4846C196.083 55.2036 195.306 55.963 194.34 56.7628C194.767 56.7827 195.103 56.778 195.347 56.7489C195.824 56.692 196.322 56.5146 196.841 56.2167C197.371 55.9058 197.897 55.5185 198.42 55.0549C198.953 54.5783 199.566 53.9742 200.258 53.2427L200.397 54.4121C199.081 56.0442 197.88 57.3085 196.795 58.2049C195.709 59.0897 194.741 59.5828 193.891 59.684C192.797 59.8144 191.73 59.4696 190.688 58.6497C190.074 58.1563 189.667 57.662 189.466 57.1666C189.277 56.6699 189.131 55.9851 189.027 55.1124ZM195.219 51.6658L194.601 49.1549C193.977 50.0554 192.622 51.8043 190.535 54.4015C191.252 54.4696 191.753 54.6163 192.039 54.8418C192.326 55.0673 192.746 55.5189 193.298 56.1965C194.051 55.7763 194.603 55.262 194.956 54.6535C195.318 54.032 195.441 53.2326 195.325 52.2551C195.311 52.1387 195.293 52.0347 195.27 51.943C195.259 51.8499 195.242 51.7575 195.219 51.6658Z" fill="#1F1F1F"/>
<path d="M113.974 22.581L114.58 23.0576C113.768 24.3698 113.035 25.3424 112.378 25.9753C111.734 26.6069 111.243 26.9427 110.905 26.983C110.626 27.0162 110.456 26.7827 110.397 26.2823C110.248 25.0373 110.84 23.0195 112.171 20.229C113.288 17.8181 113.832 16.4847 113.801 16.2287C113.775 16.0076 113.668 15.9081 113.482 15.9303C113.156 15.9692 112.424 16.8 111.283 18.423C110.143 20.0459 108.767 22.3106 107.154 25.2172C105.322 28.4569 104.074 30.7653 103.412 32.1424C104.978 32.1092 106.27 32.1558 107.288 32.2823C108.317 32.3957 109.805 32.6077 111.754 32.9183C113.715 33.2275 115.149 33.3753 116.056 33.3615C115.11 34.737 114.455 35.6708 114.088 36.1629C113.735 36.6653 113.454 36.9762 113.244 37.0956C112.913 37.2885 112.395 37.3561 111.692 37.2983C110.99 37.2521 109.872 37.1258 108.337 36.9193C106.801 36.7129 105.367 36.5593 104.033 36.4586C102.711 36.3566 101.515 36.3694 100.444 36.497C99.839 36.5691 99.3237 36.7014 98.8981 36.8937C98.4842 37.0847 97.9069 37.3895 97.1661 37.8083C96.4355 38.214 95.9132 38.4356 95.599 38.473C95.1451 38.5271 94.896 38.368 94.8517 37.9956C94.8267 37.7862 94.8739 37.5386 94.9933 37.2529C95.3038 36.5904 95.6061 35.9584 95.9002 35.3569C96.1944 34.7553 96.5264 34.2732 96.8962 33.9105C97.266 33.5477 97.8245 33.2333 98.5717 32.9672C99.3189 32.7011 100.32 32.4874 101.576 32.3259C103.125 29.1908 104.587 26.4025 105.96 23.9611C107.332 21.5081 108.594 19.428 109.748 17.7208C110.913 16.0123 111.955 14.7021 112.873 13.7901C113.79 12.8665 114.545 12.3694 115.138 12.2986C115.557 12.2487 115.897 12.3262 116.157 12.5312C116.418 12.7362 116.573 13.0481 116.623 13.4671C116.789 14.8634 115.906 17.9014 113.974 22.581ZM119.341 26.6147C120.918 24.7981 122.492 23.4008 124.063 22.4228C125.634 21.4448 126.874 20.9017 127.781 20.7936C128.026 20.7644 128.265 20.8421 128.5 21.0266C128.733 21.1994 128.923 21.4128 129.072 21.6665C129.232 21.9189 129.319 22.1091 129.334 22.2371C129.359 22.4465 129.297 22.6133 129.146 22.7375C128.994 22.85 128.723 23.0003 128.332 23.1885C128.436 23.365 128.569 23.5911 128.732 23.8667C128.895 24.1424 129.022 24.3691 129.114 24.547C129.205 24.7132 129.258 24.8661 129.275 25.0058C129.308 25.285 129.086 25.8427 128.607 26.6786C128.138 27.5016 127.809 28.1073 127.62 28.4957C127.442 28.8828 127.384 29.3382 127.446 29.8618C127.549 30.7229 127.996 31.1063 128.787 31.012C129.602 30.9149 130.785 30.0008 132.337 28.2698L132.464 29.3345C129.91 32.9553 127.998 34.8412 126.73 34.9924C126.276 35.0465 125.932 34.9341 125.699 34.6551C125.478 34.3864 125.333 33.9611 125.263 33.3793C125.154 32.46 125.326 31.0881 125.782 29.2636C124.307 31.3512 123.205 32.8457 122.475 33.7471C121.743 34.6368 121.109 35.1136 120.574 35.1774C120.318 35.2079 119.972 35.025 119.535 34.6286C119.098 34.2322 118.687 33.7029 118.301 33.0408C117.926 32.3656 117.693 31.6499 117.603 30.8935C117.537 30.3466 117.536 29.8866 117.597 29.5133C117.658 29.1285 117.816 28.726 118.073 28.306C118.33 27.8859 118.752 27.3222 119.341 26.6147ZM127.473 23.6982C124.612 25.4435 122.594 26.8761 121.417 27.9959C120.252 29.1143 119.731 30.1855 119.853 31.2095C119.897 31.5818 119.998 31.8826 120.155 32.1117C120.311 32.3291 120.5 32.4247 120.721 32.3983C120.849 32.3831 121.066 32.2746 121.372 32.0728C122.508 31.2057 123.513 30.1359 124.389 28.8632C125.262 27.5789 126.29 25.8572 127.473 23.6982ZM132.182 28.7486L132.132 28.3297C134.757 24.8067 136.558 22.3438 137.535 20.9409C137.621 19.4791 138.152 18.69 139.13 18.5734C139.374 18.5443 139.644 18.5829 139.94 18.6893L140.084 19.0084C140.055 19.1536 140.055 19.3542 140.085 19.6102C140.112 19.8313 140.242 20.2347 140.477 20.8204C140.723 21.393 140.916 21.8774 141.058 22.2736C141.199 22.6698 141.301 23.1239 141.362 23.6359C141.453 24.4039 141.367 25.1636 141.102 25.915C140.837 26.6548 140.411 27.39 139.825 28.1207C139.238 28.8398 138.461 29.5992 137.494 30.3989C137.922 30.4188 138.257 30.4142 138.502 30.3851C138.979 30.3282 139.477 30.1508 139.996 29.8529C140.526 29.542 141.052 29.1547 141.575 28.6911C142.108 28.2145 142.721 27.6104 143.412 26.8788L143.552 28.0483C142.236 29.6804 141.035 30.9447 139.95 31.8411C138.863 32.7259 137.896 33.219 137.046 33.3202C135.952 33.4506 134.884 33.1058 133.843 32.2859C133.229 31.7925 132.822 31.2981 132.621 30.8028C132.432 30.306 132.286 29.6213 132.182 28.7486ZM138.374 25.302L137.756 22.7911C137.132 23.6916 135.776 25.4405 133.69 28.0377C134.406 28.1057 134.908 28.2525 135.194 28.478C135.481 28.7035 135.9 29.155 136.453 29.8326C137.206 29.4125 137.758 28.8982 138.11 28.2897C138.473 27.6682 138.596 26.8687 138.48 25.8913C138.466 25.7749 138.447 25.6709 138.425 25.5792C138.414 25.4861 138.397 25.3937 138.374 25.302Z" fill="#1F1F1F"/>
<g clip-path="url(#clip0)">
<path fill-rule="evenodd" clip-rule="evenodd" d="M45.9697 80H46.572C46.659 79.6415 46.8749 79.0529 46.6242 78.6832C46.2517 78.1247 45.4058 78.1738 46.2935 76.6683C46.3631 76.5513 46.3979 76.5626 46.4397 76.4457C46.4467 76.423 46.5233 76.14 46.5233 76.1363C46.5824 75.8042 46.4223 75.7665 46.2726 75.6118L45.4754 74.8647C45.3396 74.7515 44.7722 73.978 44.6608 73.7214C44.6225 73.6347 44.5877 73.5403 44.5459 73.4535C44.3336 73.0045 44.2883 73.0498 44.2082 72.6159C44.1421 72.2574 43.9959 72.0876 44.0585 71.5594C44.3962 71.3217 44.5111 71.4688 44.6643 71.2387L44.9532 70.5972C45.002 69.903 45.6321 70.7331 45.8166 71.2462C45.9906 71.733 46.0185 72.3291 46.7391 72.1254C46.8157 71.8084 46.9166 70.7557 46.9097 70.4199C46.8923 69.7483 46.5198 69.2917 46.4641 68.9785C46.3527 68.9408 46.377 69.137 46.377 68.9333C46.3074 68.8654 46.3387 68.8654 46.2726 68.722C46.2691 68.7144 46.2622 68.7031 46.2587 68.6918C46.0568 68.2805 45.928 68.4277 45.9314 67.6202C45.9349 67.1863 45.8514 66.2996 46.0742 65.9826C46.4188 65.9562 47.1255 66.2468 47.7591 66.2996C47.7695 66.4769 48.0202 66.9146 48.1107 67.0957C48.2708 67.4278 48.2325 67.6013 48.4344 67.9183C48.4832 67.9937 48.5145 68.0315 48.5424 68.0805L48.8626 68.6427C49.2525 69.2615 49.3256 69.0767 49.3883 69.3295C49.4788 69.4615 49.9488 69.7105 50.1646 69.8502C50.4362 70.0237 50.7878 70.152 51.1985 70.0841C51.5397 70.0275 52.1002 70.0577 52.3891 69.9822C52.7233 69.8954 52.9914 69.9407 52.9496 69.1936C52.7198 69.0314 52.4657 68.9333 52.236 68.7107C52.2116 68.2164 52.4239 68.5371 52.3926 67.9975C52.1907 67.8089 52.0932 67.756 51.8252 67.6051C51.7207 67.5485 51.6407 67.5032 51.5606 67.4165C51.1846 67.0127 51.0976 66.7901 50.7808 66.4694C50.5963 66.2845 50.5441 66.326 50.5476 65.9562C50.5545 65.2695 50.558 64.5828 50.5545 63.8961C50.5545 63.5263 50.6067 62.0208 50.7355 61.6586L50.8539 61.4096C50.8574 61.402 50.8678 61.3945 50.8713 61.3869L50.9375 61.2775C51.1707 60.8624 51.115 61.0285 51.2473 60.6059L51.9853 58.342C52.0758 58.0439 52.1663 57.8892 52.2603 57.61C52.3508 57.3458 52.3822 57.0968 52.4831 56.844C52.591 56.5761 52.6328 56.346 52.7094 56.0705C52.7895 55.7083 52.9566 55.3121 53.1306 55.0518L53.5519 54.4631C53.6528 54.3311 53.5971 54.3273 53.7955 54.3235C53.8234 54.8178 53.531 55.3649 53.4962 55.6856C53.4718 55.9083 53.4753 56.0215 53.3987 56.1912C53.3534 56.9459 53.2385 57.1459 53.1063 57.6854C53.0888 57.7609 53.0888 57.7948 53.0749 57.8703L52.6815 60.0173C52.6537 60.3342 52.6258 61.5567 52.699 61.8133L53.3534 63.8923C53.6145 64.6356 53.4996 64.413 53.8861 65.2016C54.2968 66.0355 54.5927 67.092 55.7102 66.9486C55.8112 66.2732 55.3342 66.3373 55.3099 65.5261C55.3029 65.2242 55.2507 64.9865 55.1428 64.7564C55.0314 64.5187 54.9618 64.3564 54.8538 64.1111C54.7076 63.7867 54.2864 62.7113 54.2377 62.3717C54.1889 62.0284 54.1715 62.217 54.1367 62.0133C54.0775 61.6888 54.1019 60.6361 54.3421 60.3455C54.6032 60.0248 54.5057 60.3078 54.6206 59.6739C54.645 59.5418 54.6415 59.372 54.6658 59.24C54.6972 59.0815 54.6624 59.2475 54.7215 59.0966C54.7981 58.8966 54.7947 58.5193 55.1219 57.825C55.2402 57.5722 55.195 57.5571 55.4004 57.1647L55.5431 56.8365C55.5953 56.7384 55.651 56.678 55.7137 56.5459C55.7694 56.4327 55.8007 56.3346 55.8564 56.2177L56.02 55.9158C56.2045 55.6479 56.3055 55.3461 56.4587 55.0819L57.2559 53.1916C57.5413 52.5577 57.705 52.686 58.2271 52.0558C58.5648 51.6446 58.6971 51.3427 58.9269 50.8862C59.4316 49.875 59.3759 49.5542 59.6231 48.7543C59.6649 48.6147 59.6753 48.5506 59.7101 48.3695C59.7484 48.177 59.7693 48.1959 59.8076 48.0035C60.0652 46.7281 60.02 45.9659 60.476 44.8793C60.657 44.883 60.7023 44.9283 60.8032 45.0264C60.9007 45.1207 60.9773 45.166 61.0713 45.2566L61.5552 45.7811C61.8511 46.0791 61.9242 45.932 62.248 46.0754C62.5056 46.1886 62.6344 46.3433 62.986 46.3168V46.0225L62.885 45.9659C62.8119 45.1396 63.1844 45.317 62.4742 44.5699C62.3002 44.3888 62.3768 44.4303 62.1366 44.2831C61.6562 43.9812 62.0147 43.9284 61.6666 43.5209C61.4786 43.3021 61.3951 42.9361 61.2523 42.6606L60.9077 42.6003C60.8729 42.3399 60.9112 42.0796 60.8938 41.8268C60.8798 41.6268 60.671 40.9363 61.0121 41.1212C61.0539 41.1438 61.1026 41.208 61.134 41.2532L61.5099 41.8909C61.5761 42.0117 61.6144 42.0833 61.6944 42.2229C61.7919 42.3965 62.0217 42.6003 62.1574 42.7701C62.2688 42.9134 62.3942 43.0568 62.5508 43.121C62.6622 43.1662 62.6065 43.1549 62.7493 43.1511C62.8398 42.9964 62.8607 42.9663 62.9929 42.8908V42.3701C62.9164 42.3135 62.979 42.3701 62.9268 42.2909C62.791 42.0758 62.9964 42.4342 62.8955 42.2305C62.3733 41.1627 62.7423 40.608 62.4638 40.0383C62.2723 39.6421 61.9242 39.0874 61.8372 38.6724C61.7362 38.2045 61.6736 37.7932 61.5935 37.3178L61.3394 35.9293C61.2384 35.3029 60.8903 34.4577 60.657 33.8201C60.4482 33.2541 59.9712 32.5598 59.5987 32.1372C59.4003 31.9109 59.268 31.6731 59.0069 31.5184C58.4848 31.209 58.3873 31.126 57.8929 30.711C57.3742 30.2733 56.765 30.0092 56.2115 29.6432C55.7972 29.3715 55.3064 29.2809 54.9235 28.9866C54.7842 28.881 54.6276 28.8018 54.4674 28.6886L53.6145 27.9981C53.4196 27.8283 52.9217 27.4472 52.9113 27.134C53.162 27.0246 53.6946 27.0623 54.0253 27.0208C54.5231 26.9567 54.6345 26.8397 55 27.1114C55.3725 27.3906 55.564 27.1114 55.9783 27.1416C56.7964 27.2019 57.148 27.2321 57.9904 26.8699C58.7041 26.5605 58.7667 26.3681 59.1497 26.1983C59.5222 26.036 59.9608 25.6964 59.9434 25.1682C59.926 24.6437 59.4108 24.7795 59.087 24.7607C58.8781 24.7456 58.8294 24.689 58.5648 24.6777C58.3768 24.6701 58.1854 24.6739 58.0009 24.6626C57.792 24.6513 57.6736 24.5833 57.5135 24.5569C57.329 24.5305 57.1549 24.5381 56.9878 24.5117C55.9504 24.3268 55.6371 24.0777 55.1393 23.9796C54.8469 23.923 54.4883 23.8249 54.1854 23.7419C53.249 23.4778 52.5736 23.0514 51.9122 22.3685C51.7138 22.1647 51.491 21.9912 51.2856 21.7799L49.3535 20.0744C49.2873 20.0216 49.2421 19.9838 49.1725 19.9159C48.8348 19.5914 48.0446 19.0745 47.6268 18.75C46.8853 18.1765 45.8479 17.5577 44.995 17.1389L44.1595 16.7766C44.0307 16.7276 44.0342 16.7163 43.9193 16.6861C43.3693 16.5389 42.9376 16.3012 42.3597 16.2107C42.2031 16.1842 42.0255 16.1239 41.8584 16.1012L40.7792 15.9805C40.6191 15.9654 40.5007 15.9013 40.3267 15.8824C39.7662 15.822 37.4338 15.7918 36.8211 15.9013L35.8115 16.0711C35.5748 16.1088 35.5121 16.1163 35.3067 16.1692C34.9447 16.2635 34.802 16.1842 34.3424 16.3955C34.2206 16.4521 34.0326 16.4786 33.8864 16.5163C33.3781 16.6483 33.1379 16.4786 32.8699 16.4371C31.7176 16.2522 30.8264 16.0975 29.6463 16.0861C27.3173 16.0635 25.0197 16.1088 22.6699 16.1239C20.9467 16.1352 20.1947 16.3691 18.6386 15.7692C18.4332 15.69 18.1687 15.6598 17.9528 15.5504C17.7614 15.4485 17.8101 15.4409 17.5525 15.3881C16.9363 15.2598 16.3375 15.0108 15.7666 14.7769C14.9276 14.4297 14.113 14.0788 13.3193 13.626L12.4594 13.1204C12.449 13.1129 12.4177 13.094 12.4072 13.0902L11.154 12.1696C10.7223 11.7508 10.4125 11.2753 10.1375 10.732C9.84504 10.1472 9.6675 10.2641 9.62573 10.0038H9.27412C9.23931 10.3773 9.10354 10.0415 9.23583 10.6641C9.29153 10.932 9.32634 11.1508 9.37856 11.43C9.483 11.9545 9.75105 13.0035 9.97733 13.4525L11.3837 15.9918C11.436 16.0899 11.4986 16.1842 11.5613 16.2824C11.6866 16.4861 11.7876 16.554 11.9199 16.7578L12.4525 17.5388C12.5221 17.6256 12.5604 17.6822 12.6196 17.7878C12.7449 18.0067 12.8493 18.1237 12.9781 18.3199C13.1418 18.5651 13.1487 18.633 13.4237 18.7576C13.5978 18.833 13.8693 18.9764 14.0747 18.9538L14.4786 18.267C14.6665 18.1501 15.3767 18.4255 15.4185 18.7047C15.502 19.2783 15.2723 19.0858 15.7353 19.3952C15.8328 19.4594 15.8676 19.4896 15.9407 19.5688C16.7065 20.4064 16.5116 21.5497 18.0677 21.5799C18.2557 21.5837 18.5342 21.5988 18.7117 21.5837C18.9345 21.561 19.0076 21.4403 19.1399 21.3158C19.4915 20.9837 19.8327 20.8441 19.4323 19.8103C19.3662 19.6367 19.2861 19.4707 19.2896 19.2443C20.2992 19.1877 20.3514 19.8405 21.1938 18.8179C21.3366 18.6444 21.4062 18.4293 21.4967 18.2369C21.6951 17.8029 22.0259 17.4898 22.5063 17.486C23.3313 17.4784 23.3661 17.935 23.8361 17.9124C24.3235 17.8897 24.6925 17.5615 25.1694 17.5313C25.5001 17.5086 25.6254 17.5652 25.8413 17.3464C26.1163 17.0596 26.0293 17.1351 26.4992 17.1351C27.6411 17.1351 28.7864 17.1275 29.9282 17.1426C30.4852 17.1502 30.9552 17.2407 31.5018 17.2558C31.6306 17.2596 31.7768 17.2596 31.9056 17.2709L33.0544 17.4332C33.1832 17.4558 33.3016 17.4558 33.4304 17.4747C33.5557 17.4935 33.6323 17.5426 33.775 17.5728C34.238 17.6784 34.6627 17.7728 35.1257 17.9388L35.8185 18.1538C36.0726 18.2369 36.2153 18.3274 36.4207 18.4142C36.5043 18.4482 36.6366 18.4859 36.7166 18.5349C36.9708 18.6859 37.3537 18.7991 37.6148 18.9575C37.9908 19.1839 38.3981 19.3047 38.7775 19.5348L40.2849 20.4253C40.4137 20.4857 40.3545 20.4555 40.4485 20.5159L41.5312 21.1762C42.4433 21.7233 43.0734 22.1534 43.4215 23.2476C43.4633 23.3759 43.5085 23.4401 43.5642 23.5608L43.9263 25.0399C43.9576 25.304 44.0063 25.587 44.0133 25.8775C44.0446 27.1265 43.9228 28.0471 44.2779 29.2583C44.3196 29.3979 44.3405 29.4394 44.3614 29.5979C44.3962 29.862 44.4554 29.9186 44.5215 30.1224C44.5564 30.2356 44.5459 30.2016 44.5633 30.3374L44.8488 31.4354C44.9184 31.6354 45.0054 31.9033 45.0646 32.1146C45.1064 32.2618 45.0925 32.3448 45.1412 32.4806L45.4824 33.5107C45.8583 34.4427 46.1194 35.0652 46.7426 35.8576L47.5293 36.8386C47.6651 36.9895 47.8183 37.1292 47.954 37.299C48.0898 37.4687 48.2465 37.6121 48.3822 37.7555L48.7861 38.2309L49.4022 39.4044C49.7399 40.5024 49.9557 40.2345 49.9592 41.6192C49.9592 42.3776 49.994 42.6003 49.7712 43.2757C49.7364 43.3775 49.6633 43.5021 49.6459 43.5662C49.6007 43.7171 49.6146 43.8077 49.5589 43.9662C49.4823 44.1812 49.3813 44.3963 49.3222 44.6114C49.256 44.8566 49.1899 45.1057 49.1272 45.317C49.1098 45.3773 49.0959 45.449 49.0854 45.4867C48.9218 46.2414 48.7512 46.947 48.4449 47.6488L48.3857 47.7582C48.2848 47.977 48.3091 48.128 48.1455 48.4185C48.0654 48.5619 48.0759 48.5883 48.0097 48.7581C47.8392 49.1769 47.5258 49.4524 47.3031 49.8221C47.2404 49.9278 47.2787 49.8674 47.2091 49.9466L44.807 52.6746C44.3788 53.1161 44.0133 53.6406 43.6443 54.1726L43.2788 54.7386C42.8297 55.4555 42.3144 56.1648 41.9037 56.9157C41.5347 57.5949 41.1343 58.3042 40.9011 59.0702L40.3162 60.753C40.1108 61.1643 39.9542 61.6473 39.8846 62.1189C39.8149 62.6019 39.5956 63.0924 39.5086 63.5376C39.2196 65.0243 39.1256 67.2353 39.2997 68.7522C39.3554 69.2464 39.3728 69.9067 39.4842 70.3784C39.7035 71.3028 39.5852 71.9556 40.1213 73.4045L40.6887 75.0609C40.908 75.6495 40.8489 75.5024 41.1413 75.9665C41.385 76.3551 41.6391 76.6306 41.9524 76.9739L42.3806 77.4267C42.8958 77.9021 43.1708 78.3172 43.9054 78.5322C44.3684 78.6681 44.539 78.4681 45.0855 79.0869C45.3431 79.3812 45.7609 79.6717 45.9697 80Z" fill="#1E1A18"/>
<path fill-rule="evenodd" clip-rule="evenodd" d="M17.3645 43.0757C17.5594 43.1625 17.3993 43.0455 17.4759 43.2228C17.5246 43.3398 17.5212 43.5134 17.6708 43.6643L18.9833 44.7472C18.7465 44.8264 19.1921 44.717 18.9136 44.7661C18.6665 44.8076 17.7683 44.5963 16.9537 44.6529C16.9119 44.6868 16.8214 44.7585 16.7588 44.8264C16.6474 44.9547 16.6961 44.9736 16.5325 45.0264C16.3375 45.0189 16.153 44.6 16.0556 44.4416C16.0138 44.3699 15.9476 44.317 15.9093 44.2567C15.4846 43.5586 15.8258 43.8529 14.9207 43.1813C14.7466 43.053 14.6596 43.0757 14.4646 42.9776C14.308 42.8983 14.1652 42.8493 13.9947 42.7889C13.7092 42.687 13.4516 42.6304 13.4203 42.921C13.3506 43.5851 13.5386 43.7511 13.1313 44.9208L12.3515 47.0451C12.2541 47.245 12.2366 47.4714 12.1496 47.6639C11.9094 48.2072 11.8259 48.6298 11.7145 48.8977L10.9173 50.9239C10.7676 51.2748 10.2906 52.2709 10.0052 52.3916C9.97037 52.32 9.84853 51.471 9.10703 51.9238C8.96429 52.0106 8.97474 51.9992 8.86334 52.1011C8.79023 52.1653 8.75542 52.2219 8.62313 52.2256C8.49085 52.2294 8.44211 52.1841 8.37945 52.0973C8.29242 51.9804 8.3133 51.9653 8.27153 51.8068C8.16709 51.3918 7.87119 51.2031 7.6101 50.9201C7.18887 50.4673 6.69105 50.9088 6.32204 51.188L5.7372 51.7313C5.26375 52.1992 5.44825 52.686 5.61535 53.2557C5.65713 53.3991 5.63624 53.4746 5.66061 53.6142C5.68846 53.7651 5.65365 53.6028 5.68846 53.7085L5.70935 53.7689C5.80334 54.082 5.81726 55.5347 5.8103 55.8215C5.1802 55.8366 4.16716 55.7988 3.72505 55.5536L3.75986 55.1574L4.47003 54.7801C4.49092 54.1575 4.12191 53.9575 3.81556 53.5425C3.22723 52.7501 3.28989 52.9463 3.24812 52.2747C3.07058 52.1275 2.59713 51.92 2.29426 52.0672C2.08887 52.1653 1.91481 52.3879 1.68157 52.4181C1.62587 52.4256 1.58061 52.4218 1.52839 52.4105C1.24989 52.3464 1.46225 51.7879 1.53884 51.637C1.79297 51.1276 2.24204 50.5617 2.71201 50.2485C3.21331 49.9127 3.8817 49.5391 4.46655 49.4637C4.67194 49.4373 4.68587 49.4033 4.78682 49.2599L6.05747 47.6601C6.20716 47.3771 6.23153 47.3582 6.37774 47.1318L7.27938 45.8791C7.39426 45.7509 7.36641 45.8037 7.45344 45.6339C7.63098 45.283 7.91296 44.8793 8.11139 44.5472L8.43515 44.0303C8.72409 43.6115 9.18709 42.8266 9.50737 42.4833C9.69883 42.2795 9.87986 41.989 10.0261 41.7324C10.0887 41.6268 10.1305 41.5626 10.1932 41.4796C10.5308 41.0382 10.5169 40.7099 10.7571 40.2986L11.3315 38.3064C11.4394 37.914 11.7388 37.3329 11.7493 36.9707C11.7667 36.3783 12.0417 36.0953 12.073 35.5557C12.5082 35.2916 13.0687 35.1746 13.2114 34.5785C13.3472 34.0238 12.8389 33.5861 12.6788 33.0918C12.5465 32.673 12.4838 32.2919 12.8006 32.024C13.3994 31.5184 13.9564 32.3825 14.6317 31.0732C14.7014 30.9374 14.6874 30.96 14.7675 30.8317C14.8476 30.7072 14.8162 30.7223 14.8754 30.5827L15.2653 29.9224C15.3976 29.6696 15.415 29.4507 15.5717 29.213C15.8049 29.2017 16.2331 29.2432 16.435 29.1979C16.6926 29.1413 16.5499 29.1036 16.71 29.013L17.0999 28.7225C17.1347 28.6885 17.1765 28.6395 17.1939 28.598C17.2427 28.481 17.2357 28.2848 17.2322 28.1339C17.2252 27.8396 17.1661 27.783 17.1104 27.5528C17.0199 27.1868 16.992 26.9567 17.1487 26.6284C17.5629 25.753 17.1695 25.5002 18.4924 24.3268C18.7953 24.0589 19.5229 23.6966 19.5925 23.6363C19.9441 23.3042 19.7596 22.6666 19.2687 22.4515C18.6003 22.161 18.1721 22.3232 17.6117 22.6666L16.0973 23.3571C15.9546 23.4363 15.7179 23.8136 15.5612 23.9909C15.4568 24.1079 15.4289 24.2626 15.3384 24.4022C15.2235 24.5833 15.0773 24.7682 14.9799 24.972C14.8615 25.2172 14.8023 25.3493 14.684 25.5757C14.4855 25.9454 14.2975 26.5039 13.8206 26.519C13.194 26.5416 12.6231 26.3265 12.4281 26.8887C12.2993 27.2585 12.2541 27.6434 12.1148 27.9981C12.0626 28.1301 12.0278 28.1565 11.9756 28.2773L11.4569 29.5941C11.3594 29.7865 11.3176 30.0922 11.2306 30.311C11.0704 30.711 10.9938 30.4959 10.7223 30.6657C10.6979 31.0317 10.8059 30.7978 10.7989 31.1562C10.5483 31.2769 10.2872 31.209 10.0922 31.3449C10.0713 31.6543 10.3846 31.8354 10.5552 32.0165C11.1435 32.6542 11.1331 32.2542 11.1087 33.3258C10.8964 33.3522 10.9312 33.3333 10.8163 33.2164C10.0783 32.4693 9.60832 32.8089 8.71017 32.7447C8.6858 32.4391 8.76238 32.5636 8.79371 32.2806C8.8146 32.0995 8.80068 31.9033 8.75542 31.775C8.41078 31.6165 8.29938 31.8769 8.15317 32.0806C8.03829 32.2429 7.87119 32.4844 7.79112 32.6466C7.50566 33.2277 7.38382 33.4578 7.41863 34.2012C7.42559 34.3785 7.4604 34.4502 7.50218 34.6124C7.74586 35.5557 7.69017 38.8271 7.50566 39.6874C7.44648 39.959 7.3873 40.2269 7.33508 40.5099C7.29679 40.7023 7.26546 40.7589 7.24109 40.891C7.14709 41.4004 7.03221 41.6155 6.93126 42.0343C6.76764 42.6984 6.30464 43.8567 6.04354 44.4906L5.39952 45.7546C5.33337 45.8942 5.2916 45.9056 5.22197 46.0414C5.05836 46.3659 4.81467 46.5885 4.63713 46.8866C4.55358 47.0262 4.53617 47.0639 4.4561 47.1771L3.6589 48.2827C3.33167 48.7203 2.69808 49.3542 2.31515 49.7542C1.88348 50.207 1.36129 50.7616 1.00273 51.305L0.825184 51.5502C0.633717 51.7502 0.480543 52.1653 0.334331 52.4181L0.0836827 52.8859C0.0453891 52.9463 0.0767202 52.901 0.027983 52.9614C0.0245018 52.9652 0.0105769 52.9916 0.00709564 52.984C0.00361442 52.9765 -0.00682927 52.9991 -0.0172729 53.0067V53.2821C0.167232 53.3953 0.710304 54.3348 0.901771 54.5801C0.985321 54.6857 0.967914 54.6669 1.04798 54.8103C1.1002 54.9046 1.12109 54.9159 1.18723 55.014L1.80341 55.829C2.0471 56.2176 2.05058 56.4591 2.05058 57.0591C2.0471 58.2099 1.90436 58.5683 2.6389 59.3796C2.98355 59.7607 3.89911 60.1908 4.42129 60.4134C5.22894 60.7568 5.5144 61.0926 6.63535 61.0435C6.97651 61.0285 7.41515 60.8737 7.71801 60.7228C8.08354 60.5417 9.52477 60.2248 9.90423 60.1153C11.328 59.7078 11.3524 59.5456 11.8363 58.0967L11.8711 58.0099C11.8746 58.0061 11.8816 57.9948 11.885 57.991C11.9268 57.9344 11.9164 57.9797 11.9268 57.9722C12.0034 57.0591 11.9338 56.3007 11.9407 55.3498C11.9442 54.8178 11.9025 54.6669 12.1635 54.2254C12.3028 53.9915 12.4594 53.9726 12.6648 53.8368L13.2915 53.4293C13.4098 53.3312 13.5317 53.2633 13.6465 53.1576L14.3219 52.5841C14.6004 52.3916 14.7884 52.2256 15.0669 52.0332C15.7945 51.52 16.4803 50.9088 17.1835 50.3466C17.7057 49.9315 18.0538 49.5618 18.5412 49.1543C18.6386 49.0713 18.764 48.9279 18.8788 48.8184L21.5315 45.7018C21.6429 45.5622 21.6743 45.5056 21.7857 45.3207C22.1721 44.668 22.1999 44.8981 22.9205 44.5434L23.7595 44.1397C24.1773 43.9284 24.5289 43.6341 24.9222 43.3851C25.3504 43.1134 25.6046 42.8531 25.9875 42.5286C26.1024 42.4305 26.2451 42.3663 26.3495 42.2644L27.3208 41.3098C27.373 41.2532 27.4252 41.208 27.4879 41.1438C27.5749 41.0533 27.5506 41.0646 27.6202 40.9778C27.7699 40.7929 28.1563 40.5137 28.4104 40.125C28.5114 39.9703 28.6472 39.6572 28.7968 39.6006C29.6672 39.2685 30.4365 39.261 31.1397 39.9854C31.3242 40.1779 31.8081 40.9023 31.9021 41.1589C31.9334 41.2457 31.9508 41.3249 31.9891 41.423C32.0553 41.589 32.0309 41.4909 32.0901 41.6155C32.2467 41.9513 32.3895 42.7851 32.5496 43.1813C32.6297 43.3813 32.6088 43.5209 32.6819 43.6982C32.7759 43.9284 32.7933 43.8945 32.8629 44.1925L33.2563 45.7244C33.3399 46.0452 33.3712 46.5734 33.4443 46.8941C33.6183 47.6752 33.6706 48.9203 33.7367 49.2448C33.876 49.9089 33.8934 52.3879 33.8516 53.0784C33.8377 53.301 33.7959 53.4217 33.7924 53.6896C33.7854 54.3575 33.7297 55.1876 33.6079 55.8101C33.587 55.9196 33.594 56.0252 33.5835 56.1384C33.5452 56.5195 33.4617 56.8553 33.3851 57.2289C33.3677 57.3081 33.3538 57.4402 33.3329 57.5194C33.2215 57.9609 33.0126 59.4965 32.849 59.9871L32.0031 63.0735C31.9752 63.1754 31.9857 63.2622 31.9508 63.3791C31.9195 63.481 31.9056 63.4772 31.8673 63.5829C31.7942 63.7791 31.6271 64.6318 31.4356 65.1261L31.3242 65.5261C31.2859 65.6506 31.3068 65.5638 31.2929 65.6204L31.1502 66.1147C31.0283 66.6203 30.7603 67.839 30.621 68.2277C30.3495 68.971 30.3112 69.752 30.3077 70.567C30.3042 71.8801 30.2416 73.1592 30.5409 74.3553C30.5653 74.4534 30.6001 74.4911 30.6245 74.6043L30.7289 75.1477C30.8473 75.6005 30.816 75.94 31.1641 76.3438C31.3938 76.6117 31.6619 76.6683 32.1353 76.6004C32.2537 76.4645 32.2676 76.3551 32.4138 76.2532C32.567 76.1476 32.6958 76.1702 32.856 76.0721C33.0579 75.9476 33.4965 75.8872 33.7576 75.9853C33.8168 76.008 34.0883 76.2193 34.3494 76.7324C34.5548 77.1324 34.5548 77.2003 34.701 77.6116C34.7358 77.7134 34.7428 77.7851 34.7811 77.8795L35.0422 78.5511C35.1153 78.8152 35.1849 78.8869 35.3729 79.0378C35.4147 79.0718 35.4042 79.0605 35.446 79.0906C35.7628 79.3095 35.9543 79.5812 36.3755 79.6604L37.3676 79.7057C37.4999 79.6868 37.5138 79.5963 37.5069 79.4416C37.4964 79.2416 36.7097 77.1211 36.5913 76.8381C36.3128 76.1853 36.2745 74.4496 35.8672 73.4686L35.8394 73.412C35.6862 73.0536 35.634 72.6121 35.5052 72.2461C35.3903 71.9292 35.4147 71.816 35.359 71.4386C35.3311 71.25 35.2998 71.3066 35.2893 71.0462C35.2685 70.4274 35.3067 69.4049 35.4773 68.8502C35.6201 68.3824 35.9229 68.0843 35.8951 67.4127C35.8498 67.2919 35.7001 67.2655 35.6375 67.1561C35.5678 67.0353 35.5713 66.8844 35.5295 66.7486C35.446 66.4769 35.2754 66.3298 35.265 65.9751C35.2545 65.4921 35.3868 65.4053 35.1048 65.1035C34.8507 64.8318 34.7915 64.9337 34.4504 64.8356C34.3494 64.613 34.4817 64.4356 34.5826 64.213C35.3242 62.583 36.1353 61.2511 37.2667 59.9116C37.6287 59.4814 38.0186 59.5494 38.3737 59.0589C38.6592 58.6664 38.687 58.3495 38.868 57.8892C38.9481 57.6854 39.0143 57.5307 39.0908 57.3043C39.439 56.3082 38.8367 56.6968 38.6592 56.444C38.412 56.0894 38.8611 54.848 39.7383 54.3763C40.4207 54.0103 39.9681 52.8671 40.3093 52.5048C40.4485 52.3539 40.6574 52.3652 40.734 52.1841L40.8697 51.9615C40.9324 51.7464 40.7827 51.7804 40.6644 51.4182C40.3162 50.3315 40.5947 49.441 40.5738 48.4185C40.365 48.5355 40.1422 49.3203 39.9925 49.6825L39.8358 50.0749C39.8323 50.0787 39.7523 50.1542 39.7035 50.2258C39.6583 50.29 39.6478 50.3164 39.5991 50.407C39.526 50.539 39.4564 50.6749 39.3693 50.7805C39.2196 50.9654 38.9655 51.1956 38.6244 51.1427C38.5373 50.9352 38.6348 50.988 38.3528 50.4107L38.0569 50.3202C38.043 50.0485 38.0987 49.9881 38.2171 49.8032C38.4155 49.4901 38.3563 49.4976 38.5269 49.4335C38.6278 49.2146 38.8019 48.9618 38.8715 48.6751C38.9551 48.3355 39.0421 47.5431 39.2162 47.2941C39.4494 46.962 39.6966 46.7243 39.519 46.2527C39.3415 45.7773 39.0177 46.3017 38.7671 46.0074C38.5965 45.8037 38.5895 45.6603 38.2136 45.7244L37.6775 46.0225C37.4686 46.1621 37.4686 46.3432 37.1901 46.3131C37.1065 45.8112 37.2423 45.2188 37.1866 44.6378C37.1692 44.4416 36.922 43.2341 36.9534 43.1474C37.0717 43.0002 37.1831 42.9172 37.1553 42.6304C37.1483 42.5512 37.0613 42.1475 37.0265 42.0607C36.9986 41.9852 36.9603 41.8645 36.9255 41.7815C36.835 41.5551 36.8106 41.4909 36.6157 41.4117L35.5435 40.7929C35.3311 40.6571 35.2406 40.7514 35.1536 40.4722C34.99 39.9439 34.7393 39.4987 34.5409 38.9931C34.4678 38.812 34.3599 38.695 34.2763 38.5365C33.876 37.7593 33.3016 38.0536 33.0439 37.7291C32.9186 37.5706 32.9082 37.5027 32.7341 37.3706C32.5844 37.2574 32.5044 37.265 32.3199 37.1103C32.393 36.2274 32.3721 36.7216 31.8917 36.2236C31.3486 35.6576 32.0971 35.8425 31.0353 35.4954C30.715 35.3897 30.0779 35.3407 29.9561 35.1822L29.8934 35.0426C29.8551 34.8426 29.9491 34.5106 29.9631 34.3144C30.0362 33.2918 28.8073 31.9825 30.1476 32.0203C30.8299 32.0391 30.8751 32.1335 31.2163 32.5447C31.7768 33.2201 32.1597 33.6654 33.3677 33.5069C33.7019 33.4616 33.7367 33.3862 34.0465 33.4956C34.4573 33.639 34.5966 33.6465 34.9969 33.7446C35.1605 33.7823 35.1222 33.7937 35.265 33.8352C35.5052 33.9069 35.6375 33.8993 35.8742 34.0163C35.996 34.0766 36.0065 34.0993 36.1005 34.1974C36.5844 34.7143 37.1657 34.9483 37.7715 35.2803C38.5965 35.7368 39.5016 35.7934 39.9054 36.3292C40.09 36.5745 40.1387 36.5066 40.358 36.6726L40.7862 37.0386C40.9916 37.2386 42.3771 37.6046 42.8332 37.8008L43.4006 38.0158C43.4807 38.0423 43.5433 38.1026 43.6512 38.1366C43.8601 38.2007 43.9889 37.997 44.1108 37.8611C45.0611 36.8009 45.2248 36.8688 44.4763 35.8878C44.3719 35.7482 44.1943 35.5708 44.076 35.4463C43.8009 35.1595 43.5573 34.9143 43.1882 34.752C42.7809 34.5747 42.7322 34.1672 42.4293 33.8993C42.3005 33.7861 42.13 33.5975 41.9977 33.5446C41.4859 33.3409 41.4685 33.1899 41.2283 32.7108C41.0473 32.3485 40.7862 32.0693 40.6121 31.6807C40.5321 31.5033 40.5147 31.243 40.4033 31.0732C40.2501 30.8355 40.2188 30.9147 40.0934 30.5751C39.8567 29.945 39.8219 29.7903 39.2475 29.8696C38.9725 29.9073 38.9168 29.7488 38.5826 29.8997C38.499 29.9375 38.4085 29.9752 38.2971 30.0243C38.1857 30.0733 38.1648 30.111 38.0674 30.1714C37.2388 30.6695 37.5243 31.5335 36.1248 30.4582C35.6409 30.0846 35.4878 29.7639 35.3102 29.6809C34.8263 29.4583 34.0291 29.6168 34.0082 29.5602C34.0048 29.5488 33.9874 29.5526 33.9804 29.5451C33.8342 29.447 33.6532 28.9829 33.5626 28.7829L33.2076 27.9415C33.0927 27.666 32.9639 27.3906 32.8142 27.1378L32.2746 26.236C32.2328 26.1681 32.2085 26.1152 32.1667 26.0436C32.0866 25.9039 32.01 25.8096 31.9195 25.6964C30.6001 24.0438 29.7716 25.5266 28.6506 25.5455C27.1363 25.5681 27.387 25.4587 26.4505 24.2777C26.1476 23.8928 24.3687 21.9006 24.1738 21.9006C24.0485 21.9421 23.8291 22.1874 23.756 22.3157C23.5994 22.5873 23.7143 22.7684 23.8187 22.9873C23.944 23.2514 24.0798 23.274 24.0867 23.5985C24.0902 23.8664 23.8396 25.4134 23.9997 26.119C24.139 26.7454 24.588 27.1038 24.5811 28.0584C24.5776 28.3829 24.4592 28.4244 24.4592 28.8017C24.4592 29.0961 24.5045 29.3111 24.508 29.6318L24.4941 32.2127C24.4906 32.8994 24.5741 33.2239 23.9405 33.3107C23.8814 33.5975 23.8013 33.8276 23.5332 33.9069C23.0041 34.0653 23.2965 34.0691 23.0493 34.4238C22.7674 34.4615 22.2765 34.1898 22.0711 34.0578C21.3609 33.6088 22.0224 33.3522 21.9771 31.775C21.9562 31.0204 21.7474 29.5337 21.267 28.9866C20.8736 28.5376 21.347 28.4659 20.6856 27.5189C20.5533 27.3302 20.4036 26.6812 20.1495 26.7114C19.9824 26.7303 19.5716 27.4585 19.4985 27.6132C19.2757 28.0848 19.0668 28.5037 18.9345 29.0206C18.8197 29.4734 18.8092 29.2809 18.7326 29.979C18.6874 30.3978 18.7187 31.0166 18.2104 30.9902C18.0573 30.6242 18.1582 30.262 18.1269 29.8092C18.1025 29.4771 18.012 29.0621 17.9389 28.7527C17.6569 28.7527 17.6639 28.9451 17.5594 29.1413C17.5107 29.2357 17.4829 29.2658 17.4237 29.3866C17.1452 29.9714 17.0581 30.0092 16.8319 30.6808C16.7518 30.9185 16.7866 30.6883 16.717 30.9449C16.6857 31.0657 16.6961 31.126 16.6404 31.2581C16.4977 31.6052 15.7109 32.6164 15.4742 33.0918L15.1017 33.8804C15.0564 33.9672 15.0704 33.9219 15.0216 34.005C14.9067 34.1898 14.8441 34.4502 14.7362 34.6162L13.744 36.5971C13.664 36.7594 13.5978 36.9518 13.5143 37.1329L13.0965 38.2611C12.8981 38.9403 12.7379 39.4874 12.9399 40.1552C13.0304 40.4646 13.1801 40.6571 13.4063 40.8495C13.4794 40.9136 13.5108 40.9476 13.5839 41.0004C13.9042 41.2306 14.4681 41.0759 14.7814 41.2834C14.8789 41.3476 15.0913 41.5589 15.1748 41.6419C15.6204 42.0758 15.5647 42.1965 16.2505 42.5663C16.2575 42.5701 16.2679 42.5776 16.2784 42.5814C16.4629 42.6833 16.6926 42.7323 16.905 42.8191C17.0303 42.8719 17.3053 42.9587 17.3506 43.0417L17.3645 43.0757Z" fill="#1E1818"/>
<path fill-rule="evenodd" clip-rule="evenodd" d="M4.32031 34.2163L4.34468 34.2804C4.39341 34.503 4.32727 34.7558 4.29942 34.9784C4.24024 35.4954 4.12884 36.3066 3.91301 36.7556C3.82946 36.9292 3.79813 37.1291 3.74591 37.3216L3.52311 38.0875C3.26898 38.6875 3.17499 39.4081 2.85471 39.9817C2.78857 40.0986 2.79901 40.1628 2.73983 40.3024C2.44393 41.0231 2.37778 40.476 2.07492 42.2041C2.04359 42.3776 1.94263 42.7172 1.89041 42.8832C1.77205 43.2643 1.52836 43.6756 1.28816 43.9737L1.03751 44.3548C0.912187 44.7396 1.51096 44.4453 1.80686 44.0529L2.69458 43.004C2.8199 42.8606 2.90693 42.7889 3.02877 42.6682C3.36645 42.3286 3.87123 42.1852 4.40038 41.4457C5.39253 40.0534 5.38556 40.8118 6.047 38.5139L6.16884 37.9441C6.21062 37.7479 6.26632 37.6385 6.28024 37.4159L6.68058 34.4313C6.86857 33.5899 6.94515 33.1598 7.3629 32.4617C7.5857 32.0882 7.82242 31.7599 8.14618 31.4769C8.15314 31.4694 8.16358 31.4618 8.17055 31.4581C8.17751 31.4505 8.18795 31.443 8.19143 31.4392L9.50386 30.062C9.73362 29.779 10.3185 28.8093 10.5169 28.4471L12.2262 24.8814C12.3028 24.7229 12.3724 24.5758 12.4351 24.4135C12.5708 24.0513 12.6648 23.791 12.7344 23.3835C12.8215 22.8816 12.9329 22.9722 13.093 22.7571C13.1383 22.6967 13.1661 22.6024 13.2044 22.5269C13.5456 21.8478 13.2845 21.795 13.375 21.1497C13.3994 20.9762 13.6013 20.2102 13.1905 20.2178C12.9468 20.2215 12.5256 20.8366 12.3828 21.029L11.516 22.1383C11.3419 22.3609 11.1087 22.6854 10.7675 22.6816C10.7849 22.5081 10.8441 22.4138 10.9207 22.2817C11.0008 22.1459 11.0286 22.0855 11.1052 21.9157C11.241 21.6176 11.3628 21.4667 11.509 21.2139C11.8502 20.6253 12.2123 20.0367 12.6196 19.5235C12.7414 19.3688 12.7031 19.316 12.5917 19.1726C12.0626 18.4896 11.8502 19.2179 11.422 19.6291C10.8789 20.1498 10.3498 20.8177 9.87635 21.4063C9.37505 22.0289 8.92249 22.6779 8.51519 23.3835L6.77806 26.6963C6.72236 26.8246 6.65621 26.9529 6.59703 27.0699C6.39512 27.4811 6.27676 27.7679 6.02959 28.1678L3.79813 32.1335C3.41171 32.873 2.84427 33.3899 2.34993 34.02C2.13062 34.303 1.83819 34.2993 2.07144 34.6388C2.23505 34.8766 2.54488 34.9482 2.88256 34.8879C3.1541 34.8388 3.75983 34.5558 3.97219 34.371C4.03833 34.3144 4.11144 34.2238 4.21239 34.2012L4.31683 34.2125L4.32031 34.2163Z" fill="#1E1A18"/>
</g>
<path d="M5.75781 98.8047L8.35938 89.625H9.92969L6.39062 101H5.14062L1.60938 89.625H3.17188L5.75781 98.8047ZM27.7322 95.7422H23.7087V99.7734H28.3962V101H22.2791V89.625H28.3181V90.8594H23.7087V94.5156H27.7322V95.7422ZM47.8394 90.8594H44.8472V101H43.4175V90.8594H40.4331V89.625H47.8394V90.8594ZM65.7747 95.7422H61.7513V99.7734H66.4388V101H60.3216V89.625H66.3606V90.8594H61.7513V94.5156H65.7747V95.7422ZM82.5147 96.3984H80.5147V101H79.0772V89.625H82.2647C83.3793 89.625 84.223 89.9167 84.7959 90.5C85.3689 91.0781 85.6553 91.9271 85.6553 93.0469C85.6553 93.75 85.4991 94.3646 85.1866 94.8906C84.8793 95.4115 84.4418 95.8047 83.8741 96.0703L86.0772 100.906V101H84.5381L82.5147 96.3984ZM80.5147 95.1719H82.2491C82.848 95.1719 83.3246 94.9792 83.6787 94.5938C84.0381 94.2083 84.2178 93.6927 84.2178 93.0469C84.2178 91.5885 83.5564 90.8594 82.2334 90.8594H80.5147V95.1719ZM99.8719 101H98.4422V89.625H99.8719V101ZM120.612 101H119.174L114.62 92.2344V101H113.182V89.625H114.62L119.19 98.4297V89.625H120.612V101ZM139.336 98.0312H135.492L134.61 101H133.141L136.805 89.625H138.032L141.703 101H140.235L139.336 98.0312ZM135.867 96.7969H138.969L137.414 91.625L135.867 96.7969ZM157.49 96.3984H155.49V101H154.053V89.625H157.24C158.355 89.625 159.199 89.9167 159.772 90.5C160.344 91.0781 160.631 91.9271 160.631 93.0469C160.631 93.75 160.475 94.3646 160.162 94.8906C159.855 95.4115 159.417 95.8047 158.85 96.0703L161.053 100.906V101H159.514L157.49 96.3984ZM155.49 95.1719H157.225C157.824 95.1719 158.3 94.9792 158.654 94.5938C159.014 94.2083 159.193 93.6927 159.193 93.0469C159.193 91.5885 158.532 90.8594 157.209 90.8594H155.49V95.1719ZM174.848 101H173.418V89.625H174.848V101ZM193.603 98.0312H189.759L188.877 101H187.408L191.072 89.625H192.298L195.97 101H194.502L193.603 98.0312ZM190.134 96.7969H193.236L191.681 91.625L190.134 96.7969Z" fill="#1F1F1F"/>
<defs>
<clipPath id="clip0">
<rect width="63" height="70" fill="white" transform="translate(0 10)"/>
</clipPath>
</defs>
</svg>
