<svg width="36" height="36" viewBox="0 0 36 36" fill="none" xmlns="http://www.w3.org/2000/svg">
<path d="M35.982 8.1846C35.967 7.41235 35.9051 6.64173 35.7966 5.877C35.6673 5.19678 35.4475 4.53693 35.1432 3.915C34.4769 2.59974 33.4089 1.53103 32.094 0.864C31.4761 0.561083 30.8205 0.34195 30.1446 0.2124C29.374 0.101669 28.5973 0.0385489 27.819 0.0234C27.4896 0.0108 27.063 0.00540004 26.865 0.00540004L9.1386 0C8.9406 0 8.514 0.00539998 8.1846 0.018C7.41235 0.0328799 6.64172 0.0947944 5.877 0.2034C5.19678 0.332712 4.53693 0.552462 3.915 0.8568C2.59982 1.52316 1.53114 2.59121 0.864 3.906C0.561162 4.52397 0.342033 5.17954 0.2124 5.8554C0.101166 6.62595 0.0374456 7.40262 0.0216002 8.181C0.0108002 8.5104 0.00360017 8.937 0.00360017 9.135L0 26.8614C0 27.0594 0.00539998 27.486 0.018 27.8154C0.0328799 28.5876 0.0947944 29.3583 0.2034 30.123C0.332732 30.8032 0.552482 31.4631 0.8568 32.085C1.52316 33.4002 2.59121 34.4689 3.906 35.136C4.52398 35.4388 5.17955 35.6579 5.8554 35.7876C6.62598 35.8983 7.40265 35.9615 8.181 35.9766C8.5104 35.9892 8.937 35.9946 9.135 35.9946L26.8614 35.9982C27.0594 35.9982 27.486 35.9928 27.8154 35.9802C28.5876 35.9653 29.3583 35.9033 30.123 35.7948C30.8032 35.6654 31.463 35.4457 32.085 35.1414C33.4009 34.4753 34.4702 33.4073 35.1378 32.0922C35.4407 31.4742 35.6598 30.8187 35.7894 30.1428C35.9007 29.3723 35.9644 28.5956 35.9802 27.8172C35.991 27.4878 35.9982 27.0612 35.9982 26.8632L36 9.1386C36 8.9406 35.9946 8.514 35.982 8.1846ZM18.3906 30.5226H18.3852C16.2426 30.5222 14.1342 29.985 12.2526 28.9602L5.4486 30.744L7.2702 24.0966C5.85982 21.6492 5.29627 18.8048 5.66694 16.0045C6.03761 13.2042 7.32178 10.6044 9.32035 8.6082C11.3189 6.612 13.9202 5.33092 16.721 4.96358C19.5217 4.59625 22.3654 5.16317 24.8112 6.57647C27.2569 7.98976 29.1681 10.1705 30.2484 12.7805C31.3286 15.3905 31.5176 18.284 30.7861 21.0123C30.0546 23.7407 28.4433 26.1515 26.2022 27.8709C23.9611 29.5904 21.2153 30.5225 18.3906 30.5226V30.5226Z" fill="#1F1F1F"/>
<path d="M18.3961 7.0228C16.49 7.02224 14.6186 7.53233 12.9765 8.50003C11.3344 9.46773 9.98151 10.8577 9.05855 12.5254C8.13559 14.1931 7.67627 16.0776 7.72835 17.9829C7.78043 19.8882 8.34201 21.7448 9.35468 23.3596L9.60848 23.7628L8.53028 27.6976L12.5677 26.6392L12.9565 26.8696C14.6 27.843 16.4751 28.3565 18.3853 28.3564H18.3907C21.2199 28.3569 23.9335 27.2334 25.9344 25.2332C27.9353 23.2329 29.0597 20.5197 29.0602 17.6905C29.0607 14.8612 27.9372 12.1477 25.937 10.1468C23.9367 8.14585 21.2235 7.02147 18.3943 7.021L18.3961 7.0228ZM24.6673 22.2688C24.4313 22.6584 24.1173 22.995 23.745 23.2574C23.3726 23.5198 22.95 23.7023 22.5037 23.7934C21.8298 23.909 21.1383 23.8658 20.4841 23.6674C19.8636 23.474 19.2538 23.2481 18.6571 22.9906C16.4426 21.8793 14.5551 20.2113 13.1797 18.1504C12.4294 17.1963 11.974 16.044 11.8693 14.8348C11.8606 14.3357 11.956 13.8402 12.1494 13.38C12.3428 12.9198 12.6299 12.5049 12.9925 12.1618C13.0996 12.0396 13.2309 11.9408 13.378 11.8717C13.5252 11.8027 13.685 11.7648 13.8475 11.7604C14.0599 11.7604 14.2741 11.7604 14.4613 11.7712C14.6593 11.7802 14.9221 11.6956 15.1813 12.322C15.4513 12.9628 16.0921 14.5414 16.1713 14.7016C16.2221 14.7856 16.2512 14.8809 16.2559 14.979C16.2606 15.077 16.2408 15.1747 16.1983 15.2632C16.1175 15.4558 16.0096 15.6358 15.8779 15.7978C15.7159 15.985 15.5413 16.2154 15.3973 16.3594C15.2353 16.5196 15.0697 16.6924 15.2551 17.0128C15.7366 17.8373 16.3378 18.5858 17.0389 19.234C17.7996 19.9103 18.6725 20.4488 19.6183 20.8252C19.9387 20.9872 20.1259 20.9584 20.3131 20.7442C20.5003 20.53 21.1141 19.8082 21.3283 19.4878C21.5425 19.1674 21.7549 19.2214 22.0483 19.3276C22.3417 19.4338 23.9203 20.2096 24.2407 20.3716C24.5611 20.5336 24.7753 20.611 24.8545 20.7442C24.9423 21.2598 24.8772 21.7898 24.6673 22.2688V22.2688Z" fill="#1F1F1F"/>
</svg>
